#!OML:ASF I:\Actors\actors\Patient Classification 2\Patient 1\Session 1\actor1.ASF
:FULLY-SPECIFIED
:DEGREES
421
root -0.480621 18.7085 5.74522 2.53206 -2.1482 -1.55609
lowerback 3.64975 1.6355 -1.26788
upperback -2.78448 2.13901 0.584884
thorax -4.99531 1.1165 1.14503
lowerneck -14.4527 -2.77214 -1.93906
upperneck 10.0198 -3.93093 4.42336
head 5.5131 -1.66553 1.35615
rclavicle -2.5196e-014 9.93923e-017
rhumerus 14.2272 -1.85372 -47.5134
rradius 98.5375
rwrist -32.1727
rhand -11.7721 -50.6897
rfingers 7.12502
rthumb 14.2766 -80.1789
lclavicle -2.5196e-014 9.93923e-017
lhumerus 19.6693 -2.06074 48.9959
lradius 94.6954
lwrist 52.6544
lhand -26.5143 -13.8638
lfingers 7.12502
lthumb 0.0490474 16.1159
rfemur 0 0 0
rtibia 0
rfoot 0 0
rtoes 0
lfemur -4.81456 -5.05433 -13.4807
ltibia 22.0609
lfoot -24.6877 16.6788
ltoes -53.9202
422
root -0.479814 18.707 5.74433 2.47033 -2.12712 -1.55583
lowerback 3.56199 1.63371 -1.28109
upperback -2.6009 2.13721 0.597299
thorax -4.75461 1.11398 1.17111
lowerneck -14.9289 -2.78168 -1.80987
upperneck 10.2349 -3.95702 4.29801
head 5.65516 -1.67307 1.28771
rclavicle -1.97542e-015 1.56046e-014
rhumerus 13.0693 -1.20937 -48.0875
rradius 98.9684
rwrist -32.0043
rhand -12.1379 -50.5829
rfingers 7.12502
rthumb 13.9241 -80.0967
lclavicle -1.97542e-015 1.56046e-014
lhumerus 18.4857 -2.74786 49.972
lradius 95.0131
lwrist 52.0074
lhand -26.1673 -14.0458
lfingers 7.12502
lthumb 0.384179 15.9336
rfemur 0 0 0
rtibia 0
rfoot 0 0
rtoes 0
lfemur -4.76832 -5.03553 -13.4854
ltibia 22.0822
lfoot -24.6536 16.7001
ltoes -54.019
423
root -0.479471 18.7053 5.74214 2.3936 -2.09298 -1.59211
lowerback 3.51758 1.63792 -1.24221
upperback -2.44987 2.14562 0.603507
thorax -4.57094 1.11516 1.159
lowerneck -15.1813 -2.80381 -1.7187
upperneck 10.3369 -3.99887 4.23399
head 5.72723 -1.6898 1.24582
rclavicle -9.06334e-015 -1.0138e-014
rhumerus 12.1045 -0.622793 -48.6324
rradius 99.176
rwrist -31.8772
rhand -12.1646 -50.5257
rfingers 7.12502
rthumb 13.8984 -80.0412
lclavicle -9.06334e-015 -1.0138e-014
lhumerus 17.4507 -3.43816 51.0237
lradius 95.0866
lwrist 51.3247
lhand -25.7872 -14.0913
lfingers 7.12502
lthumb 0.751233 15.8871
rfemur 0 0 0
rtibia 0
rfoot 0 0
rtoes 0
lfemur -4.70828 -4.94435 -13.4384
ltibia 22.0914
lfoot -24.568 16.6371
ltoes -54.157
424
root -0.480082 18.7037 5.73882 2.33052 -2.05888 -1.57418
lowerback 3.50778 1.62151 -1.25356
upperback -2.32326 2.12343 0.612592
thorax -4.43366 1.10315 1.17886
lowerneck -15.4368 -2.81627 -1.77814
upperneck 10.4637 -4.01121 4.27201
head 5.81205 -1.69007 1.26313
rclavicle -2.90024e-014 2.48481e-015
rhumerus 10.9558 -0.212074 -49.6486
rradius 99.4285
rwrist -31.3391
rhand -11.9291 -50.2635
rfingers 7.12502
rthumb 14.1253 -79.7634
lclavicle -2.90024e-014 2.48481e-015
lhumerus 16.4942 -4.02638 52.0146
lradius 94.987
lwrist 50.7326
lhand -25.6803 -14.3864
lfingers 7.12502
lthumb 0.854501 15.5916
rfemur 0 0 0
rtibia 0
rfoot 0 0
rtoes 0
lfemur -4.66696 -4.84209 -13.4432
ltibia 22.1008
lfoot -24.4704 16.517
ltoes -54.175
425
root -0.480445 18.7024 5.7343 2.28203 -2.03434 -1.51137
lowerback 3.54516 1.6041 -1.30612
upperback -2.27039 2.09764 0.631211
thorax -4.40178 1.0917 1.22924
lowerneck -15.508 -2.82573 -1.93911
upperneck 10.5401 -4.00036 4.33285
head 5.85216 -1.68472 1.30844
rclavicle 1.53592e-014 -1.09332e-015
rhumerus 10.1283 0.325435 -50.443
rradius 99.3786
rwrist -31.0165
rhand -12.2058 -50.3918
rfingers 7.12502
rthumb 13.8587 -79.91
lclavicle 1.53592e-014 -1.09332e-015
lhumerus 15.5331 -4.60692 52.8812
lradius 94.8128
lwrist 50.4567
lhand -25.7285 -14.6907
lfingers 7.12502
lthumb 0.807955 15.2875
rfemur 0 0 0
rtibia 0
rfoot 0 0
rtoes 0
lfemur -4.649 -4.78411 -13.5048
ltibia 22.1128
lfoot -24.3908 16.4543
ltoes -54.1709
